/* XPM */
static char *_c2fab4257a3449d88f5dc626e3d85563iqKr0hSXfAEiRFt[] = {
/* columns rows colors chars-per-pixel */
"48 48 23 1 ",
"  c #060505",
". c #690000",
"X c #4F4A4A",
"o c #BA1F1F",
"O c #8D6C4E",
"+ c #97BC72",
"@ c #ACC24C",
"# c #AEC44D",
"$ c #AEC54E",
"% c #B0C74F",
"& c #B9CF55",
"* c #B9D055",
"= c #BBD257",
"- c #BCD358",
"; c #BED55A",
": c #BFD65B",
"> c #A6C361",
", c #A6C462",
"< c #A9C968",
"1 c #C9DF63",
"2 c #CBE165",
"3 c #CCE266",
"4 c #CFE569",
/* pixels */
"+,,,,,,,,,,,,,,,,,,,,,,,,,,,,,,,,,,,,,,,,,,,,,,+",
"<-------------------------------;====;==;=;===;<",
"<-------------------------------;=====;;=;===;=<",
"<-------------------------------==;;;======;=;=<",
"<-------------------------------=;==;*--;==;==;<",
"<-------------------------------=&&*****;==;=;=<",
"<-------------------------------&%$#%$%*======;<",
"<-------------------------------&$@@##$&=;;=;==<",
"<-------------------------------&$#@@@#&-------<",
"<-------------------------------&$@@@@$&-------<",
"<-----------------;-------------&$@#@@#&-------<",
"<------------;***&****----------&$#%$#$&-------<",
"<-------------*%$$$$%&----------***&&&**-------<",
"<-------------*$$@@@#&------------;---;--------<",
"<-------------*$@@@@$&-------------------------<",
"<-------------*$@@@@$&-------------------------<",
"<-------------*$@@@@$&-------------------------<",
"<-------------*%####%&-------------------------<",
"<---------     *&&&&*--------------------------<",
"<-------- OOOOO ---*---------------------------<",
"<-------* OOOOOO ----------;;;;;;*-;-----------<",
"<--------%    OOO --------;122222:;*-----------<",
"<-------&$##&- OOX -          443;  -----------<",
"<-------&%$$*-- XXX oooooooooo 43 oo ----------<",
"<-------***&*;-XXXoooo      ooo 3 oo ----------<",
"<---------;---- X oooo ---- oooo ooo ----------<",
"<------------- ooooooo      ooooooooo ---------<",
"<------------ ooooooooooooooooooooooo ---------<",
"<------------ ooooooooooooooooooooooo ---------<",
"<------------ oo....o......o.....oooo ---------<",
"<------------ oo.oooo.oooo.o...oooooo ---------<",
"<------------ oo.oooo.oooo.o...oooooo ---------<",
"<------------ oo....o......o...oooooo ---------<",
"<------------ oo....o.oooo.ooo...oooo ---------<",
"<------------ oo....o.oooo.ooo...oooo ---------<",
"<------------ oo....o.oooo.o.....oooo ---------<",
"<------------ ooooooooooooooooooooooo ---------<",
"<------------ oo.................oooo ---------<",
"<------------ oooooooooooooooooooooo ----------<",
"<-------------                      -----------<",
"<----------------------------------------------<",
"<----------------------------------------------<",
"<----------------------------------------------<",
"<----------------------------------------------<",
"<----------------------------------------------<",
"<----------------------------------------------<",
"<------*--*;;*---------------------------------<",
"+>>>>>,,,,,,,,,>>>>>>>>>>>>>>>>>>>>>>>>>>>>>>>>+"
};
