/* XPM */
static char *de7fb5a8d9b347aad6789ac0487124d2Sw5c3ZesVcZyYgIJ[] = {
/* columns rows colors chars-per-pixel */
"48 48 7 1 ",
"  c #464547",
". c #F00E0E",
"X c #E9EC15",
"o c #ACC24C",
"O c #BCD358",
"+ c #CFE569",
"@ c white",
/* pixels */
"OOOOOOOOOOOOOOOOOOOOOOOOOOOOOOOOOOOOOOOOOOOOOOOO",
"OOOOOOOOOOOOOOOOOOOOOOOOOOOOOOOOOOOOOOOOOOOOOOOO",
"OOOOOOOOOOOOOOOOOOOOOOooOOOOOOOOOOOOOOOOOOOOOoOO",
"OOOOOOOOOOO+OOOOOOOOOOooOOOOOOOOO+OOOOOOOOOoooOO",
"OOOOOOOOOOO++OOOOOOOOOOoOOOOOOOO+OOOOOOOOOOooOOO",
"OOOOOooOOOO+++OOOOOOOOOOOOOOOOO++OOOOOOOOOOOOOOO",
"OOOOOooOOOOO++OOOOOOOOOOOOOOOOO+++OOOOOOOOOOOOOO",
"OOOOOOOOOOOOOOOOOOOOOOOOOOOOOOO+++OOOOOOOOOOOOOO",
"OOOOOOOOOOOOOOOOOOOOOOOOOOOOOOOOOOOOOOOOOOOOOOOO",
"OOOOOOOOOOOOOOOOOOOOOOOOOOOOOOOOOOOOOOOOOOOOOOOO",
"O  X  X  X  @X  X  X  X  X  X  X  X@  X  X  X  O",
"O.          @                      @          .O",
"O           @                      @           O",
"O           @                      @           O",
"O           @                      @           O",
"O           @                      @           O",
"O           @                      @           O",
"O           @                      @           O",
"O           @                      @           O",
"O.          @                      @          .O",
"O           @                      @           O",
"O           @                      @           O",
"O   @   @@  @                      @   @@   @  O",
"O  @   @  @ @                      @  @  @ @@  O",
"O @       @ @                      @     @  @  O",
"O @@@@   @  @                      @    @   @  O",
"O   @   @   @                      @   @    @  O",
"O   @  @@@@ @                      @  @@@@  @  O",
"O           @                      @           O",
"O.          @                      @          .O",
"O           @                      @           O",
"O           @                      @           O",
"O           @                      @           O",
"O           @                      @           O",
"O           @                      @           O",
"O           @                      @           O",
"O.          @                      @          .O",
"O  X  X  X  @X  X  X  X  X  X  X  X@  X  X  X  O",
"OOOOOOOOOOOOOOOOOOOOOOOOOOOOOOOOOOOOOOOOOOOOOOOO",
"OOOOOOOOOOOOOOOOOOOOOOOOOOOOOOOOOOOOOOOOOOOOOOOO",
"OOoOOOOOOOOOOOOOOOOOOOOOOOOOOOOOOOOOOOOOOOOOOOOO",
"OooOOOOOOOOOOOOOOOOOOOOOOOOOOOOOO+OOOOOOOOOOOOOO",
"OOOOOOOOOOOOOOOOOOOoOOOOOOOOOOOO+++OOOOOOOOOOOOO",
"OOOOOOOOOOOOOOOOOOooOOOOOOOOOOOO++++OOOOOOOOOOOO",
"OOOOOOOOOOOOOOOOOOooOOOOOOOOOOO+++++OOOOOOOoOoOO",
"OOOOOOOOOOOOOOOOOOOOOOOOOOOOOOOO+OO++OOOOOOOooOO",
"OOOOOOOOOOOOOOOOOOOOOOOOOOOOOOOOOOOOOOOOOOOOoOOO",
"OOOOOOOOOOOOOOOOOOOOOOOOOOOOOOOOOOOOOOOOOOOOOOOO"
};
