/* XPM */
static char *_07f1754316d463aea517d0d65391e929ypnZJqASkIMKMLX[] = {
/* columns rows colors chars-per-pixel */
"48 48 19 1 ",
"  c #97BC72",
". c #ACC24C",
"X c #AEC44D",
"o c #AEC54E",
"O c #B0C74F",
"+ c #B9CF55",
"@ c #B9D055",
"# c #B9D056",
"$ c #BBD257",
"% c #BCD358",
"& c #BED55A",
"* c #BFD65B",
"= c #A6C361",
"- c #A6C462",
"; c #A9C968",
": c #C9DF63",
"> c #CBE165",
", c #CCE266",
"< c #CFE569",
/* pixels */
" ---------------------------------------------- ",
";%%%%%%%%%%%%%%%%%%%%%%%%%%%%%%%&$$$$&$$&$&$$$&;",
";%%%%%%%%%%%%%%%%%%%%%%%%%%%%%%%&$$$$$&&$&$$$&$;",
";%%%%%%%%%%%%%%%%%%%%%%%%%%%%%%%$$&&&$$$$$$&$&$;",
";%%%%%%%%%%%%%%%%%%%%%%%%%%%%%%%$&$$&$$$&$$&$$&;",
";%%%%%%%%%%%%%%%%%%%%%%%%%%%%%%%$@@@+@@$&$$&$&$;",
";%%%%%%%%%%%%%%%%%%%%%%%%%%%%%%%+oooOoO+$$$$$$&;",
";%%%%%%%%%%%%%%%%%%%%%%%%%%%%%%%+o...Xo+$&&$&$$;",
";%%%%%%%%%%%%%%%%%%%%%%%%%%%%%%%+oX...X+%%%%%%%;",
";%%%%%%%%%%%%%%%%%%%%%%%%%%%%%%%+o....o+%%%%%%%;",
";%%%%%%%%%%%%%%%%%&%%%%%%%%%%%%%+oXX..X+%%%%%%%;",
";%%%%%%%%%%%%&@@@+@@@@%%%%%%%%%%+oXOXXo+%%%%%%%;",
";%%%%%%%%%%%%%@OooooO+%%%%%%%%%%@@+++++%%%%%%%%;",
";%%%%%%%%%%%%%@oo...X+%%%%%%%%%%%%%%%%%%%%%%%%%;",
";%%%%%%%%%%%%%@o....o+%%%%%%%%%%%%%%%%%%%%%%%%%;",
";%%%%%%%%%%%%%@o....o+%%%%%%%%%%%%%%%%%%%%%%%%%;",
";%%%%%%%%%%%%%@o....o+%%%%%%%%%%%%%%%%%%%%%%%%%;",
";%%%%%%%%%%%%&@OXXXXO+%%%%%%%%%%%%%%%%%%%%%%%%%;",
";%%%%%%%%%%%%%@@++++@%%%%%%%%%%%%%%%%%%%%%%%%%%;",
";%%%%%%%%%%%%%%%%%%@%%%%%%%%%%%%%%%%%%%%%%%%%%%;",
";%%%%%%%@@+%@&%%%%%%%%%%%%%&&&&&&%%%%%%%%%%%%%%;",
";%%%%%%%%OoO@%%%%%%%%%%%%%&:>>>>:&%%%%%%%%%%%%%;",
";%%%%%%%+o.X+%%%%%%%%%%%%%&><<<<,*%%%%%%%%%%%%%;",
";%%%%%%@@OXO@%%%%%%%%%%%%%&><<<<,*%%%%%%%%%%%%%;",
";%%%%%%%%++@@&%%%%%%%%%%%%&><<<<,*%%%%%%%%%%%%%;",
";%%%%%%%%%%%%%%%%%%%%%%%%%&><<<<,&%%%%%%%%%%%%%;",
";%%%%%%%%%%%%%%%%%%%%%%%%%&:,,,,:&%%%%%%%%%%%%%;",
";%%%%%%%%%%%%%%%%%%%%%%%%%%&***&&%%%%%%%%%%%%%%;",
";%%%%%%%%%%%%%%%%%%%%%%%%%%%%%%%%%%%%%%%%%%%%%%;",
";%%%%%%%%%%%%%%%%%%%%%%%%%%%%%%%%%%%%%%%%%%%%%%;",
";%%%%%%%%%%%%%%%%%%%%%%%%%%%%%%%%%%%%%%%%%%%%%%;",
";%%%%%%%%%%%%%%%%%%%%%%%%%%%%%%%%%%%%%%%%%%%%%%;",
";%%%%%%%%%%%%%%%%%%%%%%%%%%%%%%%%%%%%%%%%%%%%%%;",
";%%%%%%%%%%%%%%%%%%%%%%%%%%%%%%%%%%%%%%%%%%%%%%;",
";%%%%%%%%%%%%%%%%%%%%%%%%%%%%%%%%%%%%%%%%%%%%%%;",
";%%%%%%%%%%%%%%%%%%%%%%%%%%%%%%%%%%%%%%%%%%%%%%;",
";%%%%%%%%%%%%%%%%%%%%%%%%%%%%%%%%%%%%%%%%%%%%%%;",
";%%%%%%%%%%%%%%%%%%%%%%%%%%%%%%%%%%%%%%%%%%%%%%;",
";%%%%%%%%%%%%%%%%%%%%%%%%%%%%%%%%%%%%%%%%%%%%%%;",
";%%%%%%%%%%%%%%%%%%%%%%%%%%%%%%%%%%%%%%%%%%%%%%;",
";%%%%%%%%%%%%%%%%%%%%%%%%%%%%%%%%%%%%%%%%%%%%%%;",
";%%%%%%%%%%%%%%%%%%%%%%%%%%%%%%%%%%%%%%%%%%%%%%;",
";%%%%%%%%%%%%%%%%%%%%%%%%%%%%%%%%%%%%%%%%%%%%%%;",
";%%%%%%%%%%%%%%%%%%%%%%%%%%%%%%%%%%%%%%%%%%%%%%;",
";%%%%%%%%%%%%%%%%%%%%%%%%%%%%%%%%%%%%%%%%%%%%%%;",
";%%%%%%%%%%%%%%%%%%%%%%%%%%%%%%%%%%%%%%%%%%%%%%;",
";%%%%%%@%%@&&@%%%%%%%%%%%%%%%%%%%%%%%%%%%%%%%%%;",
" =====----------=============================== "
};
