/* XPM */
static char *c6ce3a81023f42bcdaa5e759565a4982y0O43otQlNc9lxds[] = {
/* columns rows colors chars-per-pixel */
"48 48 85 1 ",
"  c #3D564F",
". c #3B5451",
"X c #3E5750",
"o c #3B595F",
"O c #3B5A5F",
"+ c #3E5F66",
"@ c #4F5D51",
"# c #505B53",
"$ c #505C53",
"% c #47604B",
"& c #4A6349",
"* c #48604B",
"= c #4B614B",
"- c #4B644A",
"; c #4F674F",
": c #4F684F",
"> c #576F44",
", c #5C694C",
"< c #5D754B",
"1 c #4C6550",
"2 c #4D6550",
"3 c #4D6B5E",
"4 c #506651",
"5 c #506850",
"6 c #506950",
"7 c #626F52",
"8 c #627A50",
"9 c #4C6061",
"0 c #507065",
"q c #507066",
"w c #957A6C",
"e c #967B6C",
"r c #A97B60",
"t c #AA7B61",
"y c #7B923C",
"u c #889F3B",
"i c #8D993F",
"p c #8AA23A",
"a c #8BA23A",
"s c #8DA43F",
"d c #90A73F",
"f c #9AA63E",
"g c #9DA73F",
"h c #95AC3A",
"j c #90A83F",
"k c #91A83F",
"l c #98AF3B",
"z c #99B03B",
"x c #9CB33E",
"c c #9DB43E",
"v c #9EB53F",
"b c #A68458",
"n c #A9865E",
"m c #AC895E",
"M c #B98B5A",
"N c #94AB52",
"B c #94AC53",
"V c #A6B256",
"C c #A1B850",
"Z c #A6BD54",
"A c #A6BD55",
"S c #A9BE55",
"D c #A9826E",
"F c #BF9061",
"G c #94B260",
"H c #97B766",
"J c #96B767",
"K c #97BC72",
"L c #C18464",
"P c #B0C74E",
"I c #B1C84E",
"U c #A8C054",
"Y c #A9C054",
"T c #A9C155",
"R c #AAC155",
"E c #B3CA52",
"W c #B3CA53",
"Q c #B6CD52",
"! c #B8CF57",
"~ c #B8C458",
"^ c #BCC559",
"/ c #BCD358",
"( c #A6C362",
") c #A8C868",
"_ c #A9C968",
/* pixels */
"K(((((((G3+ooooooooo3G(((((((((((((((((((((((((K",
")///////A6  ........6A/////////////////////////_",
")////!TAN2..........2BAA!//////////////////////)",
")////T862 ...........168T//////////////////////)",
")////A6........ .......1A//////////////////////)",
")/!TAB2.....;6;:6-.....1BAT!///////////////////)",
")/T86;.....;NASZAB6....%628T///////////////////)",
")/A6.......;A////A1.......6A///////////////////)",
")/S6.... *-<S////Z<*% ....6A///////////////////_",
")/A6....*ypsE////IBpy%....;Z///////////////////_",
")/A6....*ulCQ////Qczp*....6A///////////////////_",
")/A6....-phzIQQQQIchp&....6A///////////////////_",
")/A6....&pllcccccczzu* ...;A///////////////////_",
")/A6....*ullllllzzzzp&....:A///////////////////_",
"JAB;....&uhzllllzhzhu*....;NAAAAAAAAAAR////////_",
"q62.....&phzllllzzzzu-.....;666;6666::8R///////_",
"+.......%uzhllllzzzhp*................6A///////_",
"+.....;:<hccllllhzccd<6;..............-BAT!////_",
"+....;NASEQIchlllcIIETAB;............. 268T////_",
"+....:Z////QczlllcQ////A6................2A////)",
"+....2A////QczzzlcQ/!TAN;.... 26::6: ....2BAT//)",
"+....:A////QczzzlcE/T82;.....;NAZZAB1....X268A/)",
"+... ;Z////QchlllcE/S6 ......6A////A6. .....6A/)",
"+... :CQQQQIcllllcPQC4.... %-<Z////S<%% ....6A/)",
"+....-sccCccllllllccs-....*ypdE////Ihpy%....6A/)",
"+....*azllllllllllzlp-....%ulcE////Qczp-....6A/)",
"+....*uhlllllllllhppy*....*pzcPQIQQIxzp*....6BUJ",
"+....%azllllllllla>** ....*plzccccCzzzp%.....*1q",
"9....-uhzzlllllllu*.......*alhllzzzzhhp-.......+",
"+....*yaahlllllllu*.....66<hccllzzzzczN<62@....+",
"+.....%*>allllllhp- ...2BARIIIChhzhcIIWUAB1....+",
"+.......*ullllllla* ...;A////IclzzzcQ///!A1....9",
"q62.....%yaaNfgggi$ ...4S////QvzzllcE////S6....+",
"JAB2.....%-,bMMMMn@*...4Z////QvzzzzcQ////Z:....+",
")/A6.......$rLLLLt@ ...4Z////QcllllcE////A6....+",
")/T862X....@rLLLtr@ ...*CQQQIIcllllcIQQQQC6 ...+",
")//UAB2... @rLLLLr$ ...-sccCzcllllllcccccs*....+",
"_////A6..  @rLLLLD@ ...*pzllzzlllllllzllza*....+",
"_////U8:;267MFLMLm$....*ypphllllllllllhapy*..;6q",
")////!UAAAZS~^^^^V6.....**>plllllllllla>** .;NZJ",
")////////////////A2.......=uzzzglzzzllu* ...:A/_",
")////////////////T866.... *yuugNfgffiuy*....6A/_",
")////////////////!TAB2.....*&,bMMMMb,**.....6Z/_",
")///////////////////A6......%@tLLLLr$ ......;Z/_",
"_///////////////////T821 ....#tLLLLt@.....268T/)",
")///////////////////!TAB=....@ttLLLt@....2BAT!/)",
"_/////////////////////!A%....@rFLLLt@.. .6S////)",
"K((((((((((T(((((((((((N3o+#+9wDDDDe9OOOOqG(T((K"
};
