/* XPM */
static char *_1c085f838ce4d7bf7028c35030d172aRsOFLXJYSjvwNGiV[] = {
/* columns rows colors chars-per-pixel */
"48 48 77 1 ",
"  c #444A5D",
". c #434C5F",
"X c #434D62",
"o c #444F65",
"O c #425267",
"+ c #4F5567",
"@ c #435368",
"# c #42526B",
"$ c #445168",
"% c #45556B",
"& c #42546D",
"* c #505667",
"= c #52586A",
"- c #555A6E",
"; c #555B6E",
": c #455872",
"> c #415C74",
", c #405E77",
"< c #405E78",
"1 c #46627B",
"2 c #47637B",
"3 c #47627C",
"4 c #47667F",
"5 c #97BC72",
"6 c #ACC24C",
"7 c #AEC44D",
"8 c #AEC54E",
"9 c #B0C74F",
"0 c #B9CF55",
"q c #B9D055",
"w c #B9D056",
"e c #BBD257",
"r c #BCD358",
"t c #A6C361",
"y c #A6C462",
"u c #A9C968",
"i c #777C90",
"p c #7B7F94",
"a c #7B8094",
"s c #539CC1",
"d c #609EC1",
"f c #4BA3CF",
"g c #5CA2C7",
"h c #4EA8D4",
"j c #52AEDA",
"k c #54B0DD",
"l c #7EBDD8",
"z c #59B8E6",
"x c #5ABAE8",
"c c #66BAE3",
"v c #65BBE5",
"b c #5EC0EE",
"n c #60C3F1",
"m c #858A98",
"M c #848F9E",
"N c #9195AA",
"B c #969AAF",
"V c #809BB5",
"C c #989CB0",
"Z c #87A2BC",
"A c #89A1BA",
"S c #9CA0B4",
"D c #A0A3B6",
"F c #A5A9BA",
"G c #A7AABC",
"H c #ABAFBF",
"J c #ACAFC0",
"K c #ADB1C0",
"L c #B5BEC9",
"P c #BEDAE8",
"I c #C1C5CD",
"U c #C5C8D3",
"Y c #CED2DA",
"T c #DDE1E6",
"R c #E8E9EE",
"E c #F4F5F7",
"W c white",
/* pixels */
"5tttttttttttttttttttttttttttttttyyyyytttttttttt5",
"urrrrrrrrrrrrrrrrrrrrrrrrrrrrrrrrrerrrrrrrrrrrru",
"urrrrrrrrrrrrrrrrrrrrrrrrrrrrrrrrrrrrrrrrrrrrrru",
"urrrrrrrrrrrrrrrrrrrrrrrrrrrrrrrrrrrrrrrrrrrrrru",
"urrrrrrrrrrrrrrrrrrrrrrrrrrrrrrrrrrrrrrrrrrrrrru",
"urrrrrrrrrrrrrrrrrrrrrrrrrrrrrrrrrrrrrrrrrrrrrru",
"urrrrrrrrrrrrrrrrrrrrrrrrrrrrrrrrrrrrrrrrrrrrrru",
"urrrrrrrrrrrrrrrrrrrrrrrrrrrrrrrrrrrrrrrrrrrrrru",
"urrrrrrrrrrrrrrrrrrrrr####rrrrrrrrrrrrrrrrrrrrru",
"urrrrrrrrrrrrrrrrrrrr&    &rrrrrrrrrrrrrrrrrrrru",
"urrrrrrrrrrrrrrrrrrr        rrrrrrrrrrrrrrrrrrru",
"urrrrrrrrrrrrrrrrrrr  >ff>  rrrrrrrrrrrrrrrrrrru",
"urrrrrrrrrrrrrrrrrrX  1bb1  Xrrrrrrrrrrrrrrrrrru",
"urrrrrrrrrrrrrrrrrr   1nn3   rrrrrrrrrrrrrrrrrru",
"urrrrrrrrrrrrrrrrr    1nn3    rrrrrrrrrrrrrrrrru",
"urrrrrrrrrrrrrrrrr  TTPnnPTT  rrrrrrrrrrrrrrrrru",
"urrew  .            BBVffVBBX              rrrru",
"urreO  .            BCVffVCC               Oeeru",
"ure...&&@@%%%%@@@@#OCCVffVCC##%%#%%%%%#O%@   eru",
"urw  ,fnhjnnnnnfnkffTKVffVKTffjnfnnnnnjhnf> Orru",
"urr. <bnhfffffffnkffCBBBBBBBffknfffffffhnn<..wru",
"ure .<nnxzzzzzzznkffBBBBBBBBffknzzzzzzxxnn< .wru",
"ure  ,nncccnnnnnnkffFCCBBBSFffknnnnnncccnni .wwu",
"urr  innZBBnnnnnnkffTKBBBBHTffknnnnnnBBZnn, .wwu",
"urr  1fbABBnnnnnnjffBBBBBBBBffknnnnnnBBAnf>  rru",
"urr  X>1LYYnnnnAZgffBBFRRFBBffgZZnnnnYYL3>X  rru",
"urrrO . ITTssssBBdffBBHWWHBBffdBBssssTTI   #rrru",
"urrrr   ITT    BBdffBBHWWHBBffdBB    TTI   rrrru",
"urrrrr  ITT    TTlffBBBBBBBBfflTT    TTI  rrrrru",
"urrrrr  *==    TTM##BBHEEHBBOOMTT    ==*  rrrrru",
"urrrrrr        TTm  BBHWWHBB  mTT        rrrrrru",
"urrrrrr        TTm  BBHWWHBB  mTT        rrrrrru",
"urrrrrrrrrrro        aHWWHp        Orrrrrrrrrrru",
"urrrrrrrrrrrrr       aHWWHp       rrrrrrrrrrrrru",
"urrrrrrrreereerrrrr  aDUUDp  6667errrrrrrrrrrrru",
"urrrrrrree0000eerrr  iNBBNi  77770rrrrrrrrrrrrru",
"urrrrrrre777779errr   ;CB-   ee0eerrrrrrrrrrrrru",
"urrrrrrre7666670rrrr  .     eerreerrrrrrrrrrrrru",
"urrrrrrr0666667errrrer.   rrrrrrrrrrrrrrrrrrrrru",
"urrrrrrr0766666errrrrr::::rrrrrrrrrrrrrrrrrrrrru",
"urrrrrrr0766667errrrrrrrrrrrrrrrrrrrrrrrrrrrrrru",
"urrrrrrre776777errrrrrrrrrrrrrrrrrrrrrrrrrrrrrru",
"urrrrrrreeeeweeerrrrrrrrrrrrrrrrrrrrrrrrrrrrrrru",
"urrrrrrreeeeeeeerrrrrrrrrrrrrrrrrrrrrrrrrrrrrrru",
"urrrrrrrrrrreeerrrrrrrrrrrrrrrrrrrrrrrrrrrrrrrru",
"urrrrrrrrrrreerrrrrrrrrrrrrrrrrrrrrrrrrrrrrrrrru",
"urrrrrrrrrereerrrrrrrrrrrrrrrrrrrrrrrrrrrrrrrrru",
"5yyyyyyyyyyyyyyuyyyyyyyyyyyyyyyyyyyyyyyyyyyyyyy5"
};
