/* XPM */
static char *da79f67d756d4416ea4027e0835066fdTj8beEO2t2ERJ1ii[] = {
/* columns rows colors chars-per-pixel */
"48 48 81 1 ",
"  c #444A5D",
". c #434C5F",
"X c #434E62",
"o c #424F66",
"O c #444F65",
"+ c #425267",
"@ c #4F5567",
"# c #425268",
"$ c #435369",
"% c #42526B",
"& c #445168",
"* c #45556B",
"= c #42546D",
"- c #505667",
"; c #52586A",
": c #555B6E",
"> c #455872",
", c #405C74",
"< c #415C74",
"1 c #405E78",
"2 c #47637B",
"3 c #47627C",
"4 c #47667F",
"5 c #97BC72",
"6 c #ACC24C",
"7 c #AEC44D",
"8 c #AEC54E",
"9 c #B0C74F",
"0 c #B9CF55",
"q c #B9D055",
"w c #B9D056",
"e c #BBD257",
"r c #BCD358",
"t c #A6C361",
"y c #A6C462",
"u c #A9C968",
"i c #777C90",
"p c #787C90",
"a c #7B7F94",
"s c #7B8094",
"d c #539CC1",
"f c #609EC1",
"g c #4BA3CF",
"h c #5CA2C7",
"j c #4EA8D4",
"k c #52AEDA",
"l c #54B0DD",
"z c #7EBDD8",
"x c #59B8E6",
"c c #5ABAE7",
"v c #5ABAE8",
"b c #66BAE3",
"n c #5EC0EE",
"m c #60C3F1",
"M c #858A98",
"N c #848F9E",
"B c #9195AA",
"V c #969AAF",
"C c #809BB5",
"Z c #989CB0",
"A c #9A9EB2",
"S c #87A2BC",
"D c #88A1BA",
"F c #89A1BA",
"G c #9CA0B4",
"H c #A0A3B6",
"J c #A5A9BA",
"K c #A7AABB",
"L c #A7AABC",
"P c #ABAFBF",
"I c #ACAFC0",
"U c #ADB1C0",
"Y c #B5BEC9",
"T c #BEDAE8",
"R c #C1C5CD",
"E c #C5C8D3",
"W c #CED2DA",
"Q c #DDE1E6",
"! c #E8E9EE",
"~ c #F4F5F7",
"^ c white",
/* pixels */
"5yyyyyyyyyyyyyyyyyyyyyyyyyyyyyyyyyyyyyyyyyyyyyy5",
"urrrrrrrrrrrrrrrrrrrrrrrrrrrrrrrrrrrrrrrrrrrrrru",
"urrrrrrrrrrrrrrrrrrrrrrrrrrrrrrrrrrrrrrrrrrrrrru",
"urrrrrrrrrrrrrrrrrrrrrrrrrrrrrrrrrrrrrrrrrrrrrru",
"urrrrrrrrrrrrrrrrrrrrrrrrrrrrrrrrrrrrrrrrrrrrrru",
"urrrrrrrrrrrrrrrrrrrrrrrrrrrrrrrrq0qqq0rrrrrrrru",
"urrrrrrrrrrrrrrrrrrrrrrrrrrrrrrrq988889qrrrrrrru",
"urrrrrrrrrrrrrrrrrrrrrrrrrrrrrrrq8666660rrrrrrru",
"urrrrrrrrrrrrrrrrrrrrr>>>>rrrrrr08666690rrrrrrru",
"urrrrrrrrrrrrrrrrrrrre    rrrrrr08666660rrrrrrru",
"urrrrrrrrrrrrrrrrrrr        rrrrq9666690rrrrrrru",
"urrrrrrrrrrrrrqq000   :ZZ:   rrr09698690rrrrrrru",
"urrrrrrrrrrrrrq9888  iBZZBi  rrrr00000qrrrrrrrru",
"urrrrrrrrrrrrrq8666  aGEEHs  rrrrrrrrrrrrrrrrrru",
"urrrrrrrrrrrrr       aP^^Is       rrrrrrrrrrrrru",
"urrrrrrrrrrrO        aP^^Is        Orrrrrrrrrrru",
"urrrrrr        QQM  VVP^^PVV  MQQ        rrrrrru",
"urrrrrr        QQM  VVP^^IVV  MQQ        rrrrrru",
"urrrrr  -;;    QQN#+VVP~~PVV++NQQ    ;;@  rrrrru",
"urrrrr  RQQ    QQzggVVVVVVVVggzQQ    QQR  rrrrru",
"urrrr   RQQ    VVfggVVP^^IVVggdZV   .QQR   qrrru",
"urrr#   RQQddddVVfggVVP^^IVVggfZVddddQQR   *rrru",
"urr  X<3YWWmmmmSShggVVK!!LVVgghFSmmmmWWY2,X .rru",
"urr  <gmFVVmmmmmmlggVVVVVVZZggkmmmmmmVVFmg,. rru",
"urr  1vnSZVmmmmmmkgg!PVVVVUQggkmmmmmmVZSmm1  rru",
"urr  innbbbmmmmmmkggHZVVVVZKggkmmmmmmbbbmm1  rru",
"urr o4mmxxxxxxxxmlggVVZVVVVVgglmxxccxxxvmm,  rru",
"urr .4mmjgggggggmlggVVZAVVVVgglmggggggggmmi  rru",
"urr..,gnjkmmmmmgmkgg!KfggVP!ggkmgnmmmmkgmg1. rru",
"urr.. #=+******#@+&&AZBggfVA*#&*+=**===o,#.  rru",
"ureeo ..            VVCggCVV  X            orrru",
"ureww               VVCggCVV              Xqrrru",
"urrrrrrrrrrrrrrrrr  QQTxvTQQ  rrrrrrrrrrrrrrrrru",
"urrrrrrrrrrrrrrrrr    imn1oo  rrrrrrrrrrrrrrrrru",
"urrrrrrrrrrrrrrrrrr   3mn2.. rrrrrrrrrrrrrrrrrru",
"urrrrrrrrrrrrrrrrrrX  3vx1  Xrrrrrrrrrrrrrrrrrru",
"urrrrrrrrrrrrrrrrrrr  ,gj,  rrrrrrrrrrrrrrrrrrru",
"urrrrrrrrrrrrrrrrrrr     .  rrrrrrrrrrrrrrrrrrru",
"urrrrrrrrrrrrrrrrrrrr=    =rrrrrrrrrrrrrrrrrrrru",
"urrrrrrrrrrrrrrrrrrrrr%##%errrrrrrrrrrrrrrrrrrru",
"urrrrrrrrrrrrrrrrrrrrrrrrrrrrrrrrrrrrrrrrrrrrrru",
"urrrrrrrrrrrrrrrrrrrrrrrrrrrrrrrrrrrrrrrrrrrrrru",
"urrrrrrrrrrrrrrrrrrrrrrrrrrrrrrrrrrrrrrrrrrrrrru",
"urrrrrrrrrrrrrrrrrrrrrrrrrrrrrrrrrrrrrrrrrrrrrru",
"urrrrrrrrrrrrrrrrrrrrrrrrrrrrrrrrrrrrrrrrrrrrrru",
"urrrrrrrrrrrrrrrrrrrrrrrrrrrrrrrrrrrrrrrrrrrrrru",
"urrrrrrrrrqrrqrrrrrrrrrrrrrrrrrrrerrerrerrerreru",
"5ttttttyyyyyytyyttttttttttttttttyttyttyttyttyty5"
};
