/* XPM */
static char *_4d00a92a8b54d648de5d4e840feed93gq1qm5Yky6QRYBqG[] = {
/* columns rows colors chars-per-pixel */
"48 48 76 1 ",
"  c #444A5D",
". c #434C5F",
"X c #434D62",
"o c #424F67",
"O c #444F65",
"+ c #425267",
"@ c #4F5567",
"# c #435368",
"$ c #435369",
"% c #42526B",
"& c #445168",
"* c #45556B",
"= c #505667",
"- c #52586A",
"; c #555A6E",
": c #455872",
"> c #415C74",
", c #405E77",
"< c #405E78",
"1 c #47627C",
"2 c #47667F",
"3 c #97BC72",
"4 c #ACC24C",
"5 c #AEC54E",
"6 c #B0C74F",
"7 c #B9CF55",
"8 c #B9D055",
"9 c #BBD257",
"0 c #BCD358",
"q c #A6C361",
"w c #A6C462",
"e c #A9C968",
"r c #777C90",
"t c #787C90",
"y c #7B7F94",
"u c #7B8094",
"i c #539CC1",
"p c #609EC1",
"a c #4BA3CF",
"s c #5CA2C7",
"d c #4EA8D4",
"f c #52AEDA",
"g c #54B0DD",
"h c #7EBDD8",
"j c #59B8E6",
"k c #5ABAE7",
"l c #5ABAE8",
"z c #66BAE3",
"x c #65BBE5",
"c c #60C3F1",
"v c #858A98",
"b c #84909E",
"n c #9195AA",
"m c #969AAF",
"M c #809BB5",
"N c #989CB0",
"B c #9A9EB2",
"V c #87A2BC",
"C c #88A1BA",
"Z c #89A1BA",
"A c #A0A3B6",
"S c #A5A9BA",
"D c #A7AABC",
"F c #A9ADBE",
"G c #ABAFBF",
"H c #ACAFC0",
"J c #ADB1C0",
"K c #B5BDC9",
"L c #BEDAE8",
"P c #C1C5CD",
"I c #C5C8D3",
"U c #CED2DA",
"Y c #DDE1E6",
"T c #E8E9EE",
"R c #F4F5F7",
"E c white",
/* pixels */
"3eeeeeeeeeeeeeeeeeeeeeeeeeeeeeeeeeeeeeeeeeeeeee3",
"w0000000000000000000000000000000000000000000000q",
"w0000000000000000000000000000000000000000000000q",
"w000000000000000000000        00000000000000000q",
"w00000000000000000000&        o0000000000000000q",
"w0000000000000000000  X<2222<.  000000000000000q",
"w00000000000000000    >acccca&  000000000000000q",
"w000000000000000      1cccccc*  000000000000000q",
"w000008877780000  @PPPKZZxjdd#  000000000000000q",
"w000086545567000 .-YYYUmmzjag#  000000000000000q",
"w000085444447000  -YYYUmmzjac*  000000000000000w",
"w000085444467000     iccccjac*  000000000000009q",
"w00008544444800O     iccccjac*  000000000000000q",
"w00008544445700      iccccjac*  000000000000000w",
"w0000865555680       iccccjac*  000000000000009q",
"w0000888778800  YYYYmmVcccjaa+  000000000000000q",
"w0000000000000  YYYYmmVcccccc*  990000000000000q",
"w0000000000000  vvbhppsfggggg*  990000000000000w",
"w0000000000000    +aaaaaaaaaa#    8800000000009q",
"w0000000000       +aaaaaaaaaa#   ...00000000000q",
"w000000000      mmmmmmmmYSmmYNNNY..   000000000w",
"w000000000  ruuummmmmmmmHNmmHNNNYo.. X%00000009q",
"w0000000:  ;nAJFGGFmHHDmNNNmMMpnL<,r>  %0000000q",
"w0000000:  mmIEEEERmEETmmmNNaaaacljla  %0000000w",
"w0000000:  NmIEEEERmEETmmmmmaaaaccclaX %0000000q",
"w0000000:  ;nAHFFHSmFHSmmmmmpnMML111>  #0000000q",
"w000000000  ryyymmmmNmNNFNNNGNNNY     *00000000q",
"w000000000      mmmmmmNNYSNNTBmmY     000000000q",
"w0000000000       +aaaaaaaaaaO     o00000000000q",
"w0000000000854    +aaaaaaaaaaO    0000000000000q",
"w0000000000854  vvvhipsgffjff&  000000000000000q",
"w0000000000854 XYYYYmNZcccccc&  000000000000000q",
"w0000000000865  YYYYmmZcccjaa#  900000000000000w",
"w0000000000888       iccccjac*  900000000000009q",
"w00000000000000      iccccjac*  000000000000000w",
"w00000000000000&     iccccjac*  000000000000009q",
"w000000000000000     iccccjac*  000000000000000w",
"w000000000000000  -YYYUmNzjac*  000000000000000q",
"w000000000000000  -YYYUmmzjaf#  000000000000000q",
"w000000000000000  @PPPKZCzldd#  000000000000000q",
"w000000000000000      1cccccc*  000000000000000q",
"w00000000000000000    >acccca#  000000000000000q",
"w0000000000000000000  X<2222>X  000000000000000q",
"w00000000000000000000#        o0000000000000000q",
"w000000000000000000000        00000000000000000q",
"w0000000000000000000000000000000000000000000000q",
"w0000000000000000000000000000000000000000000000q",
"3eeeeeeeeeeeeeeeeeeeeeeeeeeeeeeeeeeeeeeeeeeeeee3"
};
