/* XPM */
static char *b4586e0c09844188c3a5b22a7a828c19xAgS5fvfS2WtH1gu[] = {
/* columns rows colors chars-per-pixel */
"48 48 82 1 ",
"  c #444A5D",
". c #434C5F",
"X c #434D62",
"o c #434E62",
"O c #424F66",
"+ c #424F67",
"@ c #444F65",
"# c #425267",
"$ c #425268",
"% c #435368",
"& c #42526B",
"* c #445168",
"= c #45556B",
"- c #42546D",
"; c #505667",
": c #52586A",
"> c #555A6E",
", c #555B6E",
"< c #455872",
"1 c #415C74",
"2 c #405E77",
"3 c #405E78",
"4 c #46627B",
"5 c #47627C",
"6 c #47667F",
"7 c #97BC72",
"8 c #ACC24C",
"9 c #AEC44D",
"0 c #AEC54E",
"q c #B0C74F",
"w c #B9CF55",
"e c #B9D055",
"r c #BBD257",
"t c #BCD358",
"y c #A6C361",
"u c #A6C462",
"i c #A9C968",
"p c #777C90",
"a c #7B7F94",
"s c #7B8094",
"d c #539CC1",
"f c #609EC1",
"g c #4BA3CF",
"h c #5CA2C7",
"j c #4EA8D4",
"k c #52AEDA",
"l c #54B0DD",
"z c #7EBDD8",
"x c #59B8E6",
"c c #5ABAE8",
"v c #66BAE3",
"b c #65BBE5",
"n c #5EC0EE",
"m c #60C3F1",
"M c #858B98",
"N c #848F9E",
"B c #84909E",
"V c #9195AA",
"C c #969AAF",
"Z c #809BB5",
"A c #989CB0",
"S c #9A9EB2",
"D c #87A2BC",
"F c #88A1BA",
"G c #89A1BA",
"H c #9CA0B4",
"J c #A0A3B6",
"K c #A5A9BA",
"L c #A7AABB",
"P c #A9ADBE",
"I c #ABAFBF",
"U c #ACAFC0",
"Y c #ADB1C0",
"T c #B5BDC9",
"R c #BEDAE8",
"E c #C1C5CD",
"W c #C5C8D3",
"Q c #CED2DA",
"! c #DDE1E6",
"~ c #E8E9EE",
"^ c #F4F5F7",
"/ c white",
/* pixels */
"7iiiiiiiiiiiiiiiiiiiiiiiiiiiiiiiiiiiiiiiiiiiiii7",
"yttttttttttttttttttttttttttttttttttttttttttttttu",
"yttttttttttttttttttttttttttttttttttttttttttttttu",
"yttttttttttttttttt        tttttttttttttttttttttu",
"yttttttttttttttttO        *tttttttttttttttttttty",
"yttttttttttttttt  .266662o  ttttttttttttttttttty",
"yttttttttttttttt  $gmmmmg2    ttttttttttttttttty",
"yttttttttttttttt  =mmmmmm4      ttttttttttttttty",
"yttttttttttttttt  $jjcbFGTEEE;  tttttttttttttttu",
"yttttttttttttttt  $kgxvCCQ!!!:  tttttttttttttttu",
"yttttttttttttttt  =mgxvCCQ!!!:  tttttttttttttttu",
"yttttttttttttttt  =mgxmmmmd     tttttttttttttttu",
"yttttttttttttttt  =mgxmmmmd     #rrttttttttttttu",
"yttttttttttttttt  =mgxmmmmd      rtttttttttttttu",
"yttttttttttttttt  =mgxmmmmd       ertttttttttttu",
"yttttttttttttttt  $ggxmmmGCC!!!!  0qtttttttttttu",
"ytttttttttttttrr  =mmmmmmZSC~!!!  89rrtttttttttu",
"ytttttttttttttrw  =lkklllhffZVNN  80rttttttttttu",
"yttttttttttttt    #gggggjgggg#    80wrtttttttttu",
"yttttttttttto     $gggggggggg#       rttttttttty",
"yttttttttt     !CCJ~VCL!CCCCCCCC      ttttttttty",
"ytttttttt-     ~CCHICCSICCCACCCCaaap  ttttttttty",
"yttttttt#  2455RdZZZCCCCCKPPCPPIPYHV>  <ttttttty",
"yttttttt$  gnmmmhgggCCCCC~//C^////WAA  <ttttttty",
"yttttttt&  gcmmmggggCCCCC~//C^////WAA  <tttttttu",
"yttttttt&  3464RZZZZCCCAAKYYCPUUIIHV>  <tttttttu",
"ytttttttt-     !AAAYCCAPCCCCCCCCsssp  rttttttttu",
"yttttttttt     !CAA!CCK~CCCCCCCC      rttttttttu",
"yttttttttttto     #gggggggggg#      ottttttttttu",
"yttttttttttttt    #gggggggggg#    tttttttttttttu",
"yttttttttttttttt  +llllllhdfzBMM  tttttttttttttu",
"yttttttttttttttt  =mmmmmmGCC!!!! .tttttttttttttu",
"yttttttttttttttt  #ggxmmmGAC!!!!  trrrwwrwttttty",
"yttttttttttttttt  *mgxmmmmd.      rrq99998etttty",
"yttttttttttttttt  =mgxmmmmd      trr98888qetttty",
"yttttttttttttttt X=mgxmmmmd     Orrw988889etttty",
"yttttttttttttttt  $mgxmmmmd     ttrw988880etttty",
"yttttttttttttttt  =mgxbACQ!!!:  ttrw988880etttty",
"yttttttttttttttt  $kgxbACQ!!!:  tttrq8998qrttttu",
"yttttttttttttttt X$jjxmDGTEEE;  ttttrwwweetttttu",
"yttttttttttttttt  =mmmmcm4      ttttttttttttttty",
"yttttttttttttttt  $gmmmcg3    ttttttttttttttttty",
"yttttttttttttttt   3p3322X  ttttttttttttttttttty",
"yttttttttttttttttO     o  *ttttttttttttttttttttu",
"yttttttttttttttttt        tttttttttttttttttttttu",
"yttttttttttttttttttttttttttttttttttttttttttttttu",
"yttttttttttttttttttttttttttttttttttttttttttttttu",
"7iiiiiiiiiiiiiiiiiiiiiiiiiiiiiiiiiiiiiiiiiiiiii7"
};
